<svg width="68" height="60" viewBox="0 0 68 60" fill="none" xmlns="http://www.w3.org/2000/svg">
<path d="M21.5 0.833344C23.7102 0.833344 25.8298 1.71132 27.3926 3.27412C28.9554 4.83692 29.8334 6.95654 29.8334 9.16668V34.1667C29.8334 47.2083 22.9584 55.8042 10.0125 59.0417C9.48029 59.1791 8.92613 59.2098 8.38197 59.132C7.83782 59.0543 7.31442 58.8697 6.84193 58.5888C6.36944 58.3079 5.9572 57.9363 5.62896 57.4954C5.30072 57.0545 5.06296 56.553 4.92939 56.0198C4.79581 55.4866 4.76906 54.9322 4.85067 54.3886C4.93228 53.845 5.12064 53.323 5.4049 52.8525C5.68916 52.382 6.0637 51.9724 6.50695 51.6474C6.95019 51.3223 7.45338 51.0881 7.98752 50.9583C17.2667 48.6375 21.5 43.3458 21.5 34.1667V30H9.00002C6.89762 30.0007 4.87266 29.2066 3.33107 27.7771C1.78948 26.3476 0.845201 24.3882 0.687521 22.2917L0.666687 21.6667V9.16668C0.666687 6.95654 1.54466 4.83692 3.10746 3.27412C4.67027 1.71132 6.78988 0.833344 9.00002 0.833344H21.5ZM59 0.833344C61.2102 0.833344 63.3298 1.71132 64.8926 3.27412C66.4554 4.83692 67.3334 6.95654 67.3334 9.16668V34.1667C67.3334 47.2083 60.4584 55.8042 47.5125 59.0417C46.9803 59.1791 46.4261 59.2098 45.882 59.132C45.3378 59.0543 44.8144 58.8697 44.3419 58.5888C43.8694 58.3079 43.4572 57.9363 43.129 57.4954C42.8007 57.0545 42.563 56.553 42.4294 56.0198C42.2958 55.4866 42.2691 54.9322 42.3507 54.3886C42.4323 53.845 42.6206 53.323 42.9049 52.8525C43.1892 52.382 43.5637 51.9724 44.0069 51.6474C44.4502 51.3223 44.9534 51.0881 45.4875 50.9583C54.7667 48.6375 59 43.3458 59 34.1667V30H46.5C44.3976 30.0007 42.3727 29.2066 40.8311 27.7771C39.2895 26.3476 38.3452 24.3882 38.1875 22.2917L38.1667 21.6667V9.16668C38.1667 6.95654 39.0447 4.83692 40.6075 3.27412C42.1703 1.71132 44.2899 0.833344 46.5 0.833344H59Z" fill="#E2E7EA"/>
</svg>
